<svg width="24" height="25" viewBox="0 0 24 25" fill="none" xmlns="http://www.w3.org/2000/svg">
<path fill-rule="evenodd" clip-rule="evenodd" d="M12.9081 2.08103C12.828 1.90757 12.7 1.76066 12.5391 1.65769C12.3782 1.55472 12.1911 1.5 12.0001 1.5C11.809 1.5 11.622 1.55472 11.4611 1.65769C11.3002 1.76066 11.1721 1.90757 11.0921 2.08103L8.22207 8.30103L1.42107 9.10803C1.23132 9.13043 1.05196 9.20673 0.90422 9.32789C0.756478 9.44905 0.646539 9.60999 0.587413 9.79168C0.528288 9.97337 0.522452 10.1682 0.570595 10.3531C0.618739 10.538 0.718847 10.7052 0.859071 10.835L5.88907 15.485L4.55407 22.205C4.51699 22.3924 4.53432 22.5864 4.60402 22.7642C4.67371 22.942 4.79285 23.0961 4.94736 23.2083C5.10186 23.3205 5.28527 23.3862 5.4759 23.3975C5.66652 23.4087 5.8564 23.3652 6.02307 23.272L12.0001 19.926L17.9771 23.272C18.1438 23.3656 18.334 23.4094 18.5249 23.3983C18.7158 23.3871 18.8995 23.3214 19.0542 23.209C19.209 23.0966 19.3282 22.9422 19.3978 22.764C19.4675 22.5859 19.4845 22.3916 19.4471 22.204L18.1121 15.486L23.1411 10.835C23.2813 10.7052 23.3814 10.538 23.4295 10.3531C23.4777 10.1682 23.4719 9.97337 23.4127 9.79168C23.3536 9.60999 23.2437 9.44905 23.0959 9.32789C22.9482 9.20673 22.7688 9.13043 22.5791 9.10803L15.7771 8.30003L12.9081 2.08103Z" fill="#EBB200"/>
</svg>
