<svg width="23" height="23" viewBox="0 0 23 23" fill="none" xmlns="http://www.w3.org/2000/svg">
<g clip-path="url(#clip0_529_443)">
<mask id="mask0_529_443" style="mask-type:luminance" maskUnits="userSpaceOnUse" x="0" y="0" width="23" height="23">
<path d="M11.5052 21.0833C12.764 21.085 14.0106 20.8378 15.1735 20.3561C16.3364 19.8744 17.3927 19.1676 18.2816 18.2764C19.1728 17.3875 19.8796 16.3312 20.3613 15.1683C20.843 14.0054 21.0902 12.7587 21.0885 11.5C21.0902 10.2413 20.843 8.99462 20.3613 7.8317C19.8796 6.66879 19.1728 5.61253 18.2816 4.72362C17.3927 3.83239 16.3364 3.1256 15.1735 2.64389C14.0106 2.16218 12.764 1.91503 11.5052 1.91666C10.2465 1.91506 8.99984 2.16221 7.83692 2.64393C6.67401 3.12564 5.61775 3.83241 4.72884 4.72362C3.83763 5.61253 3.13086 6.66879 2.64914 7.8317C2.16743 8.99462 1.92028 10.2413 1.92188 11.5C1.92025 12.7587 2.16739 14.0054 2.64911 15.1683C3.13082 16.3312 3.8376 17.3875 4.72884 18.2764C5.61775 19.1676 6.67401 19.8744 7.83692 20.3561C8.99984 20.8378 10.2465 21.0849 11.5052 21.0833Z" fill="white" stroke="white" stroke-width="1.91667" stroke-linejoin="round"/>
<path d="M7.67188 11.5L10.5469 14.375L16.2969 8.625" stroke="black" stroke-width="1.91667" stroke-linecap="round" stroke-linejoin="round"/>
</mask>
<g mask="url(#mask0_529_443)">
<path d="M0.00195312 -1.52588e-05H23.002V23H0.00195312V-1.52588e-05Z" fill="black"/>
</g>
</g>
<defs>
<clipPath id="clip0_529_443">
<rect width="23" height="23" fill="white"/>
</clipPath>
</defs>
</svg>
