<svg width="14.000000" height="14.000000" viewBox="0 0 14 14" fill="none" xmlns="http://www.w3.org/2000/svg" xmlns:xlink="http://www.w3.org/1999/xlink">
	<desc>
			Created with Pixso.
	</desc>
	<defs>
		<clipPath id="clip34_3744">
			<rect id="noun-right-3678530 1" width="14.000000" height="14.000000" fill="white" fill-opacity="0"/>
		</clipPath>
	</defs>
	<rect id="noun-right-3678530 1" width="14.000000" height="14.000000" fill="#FFFFFF" fill-opacity="0"/>
	<g clip-path="url(#clip34_3744)">
		<path id="Vector" d="M12.95 7C12.95 7.08 12.93 7.17 12.88 7.24C12.84 7.31 12.78 7.38 12.71 7.42L1.43 13.93C1.33 13.99 1.21 14.01 1.1 13.99C0.99 13.97 0.88 13.91 0.81 13.82C0.74 13.73 0.69 13.62 0.69 13.5L0.69 0.49C0.69 0.37 0.74 0.26 0.81 0.17C0.88 0.08 0.99 0.02 1.1 0C1.21 -0.02 1.33 0 1.43 0.06L12.71 6.57C12.78 6.61 12.84 6.68 12.88 6.75C12.93 6.82 12.95 6.91 12.95 7L12.95 7Z" fill="#A3CCD2" fill-opacity="1.000000" fill-rule="nonzero"/>
	</g>
</svg>
