<svg width="22.000000" height="22.000000" viewBox="0 0 22 22" fill="none" xmlns="http://www.w3.org/2000/svg" xmlns:xlink="http://www.w3.org/1999/xlink">
	<desc>
			Created with Pixso.
	</desc>
	<defs>
		<filter id="filter_34_3746_dd" x="0.000000" y="0.000000" width="22.000000" height="22.000000" filterUnits="userSpaceOnUse" color-interpolation-filters="sRGB">
			<feFlood flood-opacity="0" result="BackgroundImageFix"/>
			<feColorMatrix in="SourceAlpha" type="matrix" values="0 0 0 0 0 0 0 0 0 0 0 0 0 0 0 0 0 0 127 0" result="hardAlpha"/>
			<feOffset dx="0" dy="4"/>
			<feGaussianBlur stdDeviation="1.33333"/>
			<feComposite in2="hardAlpha" operator="out" k2="-1" k3="1"/>
			<feColorMatrix type="matrix" values="0 0 0 0 0 0 0 0 0 0 0 0 0 0 0 0 0 0 0.25 0"/>
			<feBlend mode="normal" in2="BackgroundImageFix" result="effect_dropShadow_1"/>
			<feBlend mode="normal" in="SourceGraphic" in2="effect_dropShadow_1" result="shape"/>
		</filter>
		<clipPath id="clip34_3746">
			<rect id="noun-right-3678530 2" width="14.000000" height="14.000000" transform="matrix(-1 0 0 1 18 0)" fill="white" fill-opacity="0"/>
		</clipPath>
	</defs>
	<g filter="url(#filter_34_3746_dd)">
		<rect id="noun-right-3678530 2" width="14.000000" height="14.000000" transform="matrix(-1 0 0 1 18 0)" fill="#FFFFFF" fill-opacity="0"/>
		<g clip-path="url(#clip34_3746)">
			<path id="Vector" d="M5.04 7C5.04 7.08 5.06 7.17 5.11 7.24C5.15 7.31 5.21 7.38 5.28 7.42L16.56 13.93C16.66 13.99 16.78 14.01 16.89 13.99C17 13.97 17.11 13.91 17.18 13.82C17.25 13.73 17.29 13.62 17.29 13.5L17.29 0.49C17.29 0.37 17.25 0.26 17.18 0.17C17.11 0.08 17 0.02 16.89 0C16.78 -0.02 16.66 0 16.56 0.06L5.28 6.57C5.21 6.61 5.15 6.68 5.11 6.75C5.06 6.82 5.04 6.91 5.04 7L5.04 7Z" fill="#A3CCD2" fill-opacity="1.000000" fill-rule="nonzero"/>
		</g>
	</g>
</svg>
