<svg width="16" height="16" viewBox="0 0 16 16" fill="none" xmlns="http://www.w3.org/2000/svg">
<path d="M14.8275 13.3256C13.5075 12.6875 12.75 11.29 12.75 9.5V8.42063C12.7505 8.17013 12.6756 7.92528 12.5349 7.71802C12.3942 7.51076 12.1943 7.35071 11.9613 7.25875L10.4075 6.64563C10.3465 6.62136 10.2975 6.57406 10.271 6.51395C10.2446 6.45384 10.2429 6.38575 10.2663 6.32438L11.5994 3.01188C11.7018 2.76365 11.7531 2.49736 11.7503 2.22887C11.7476 1.96038 11.6908 1.69519 11.5834 1.44912C11.4759 1.20304 11.3201 0.981123 11.125 0.796585C10.93 0.612047 10.6998 0.46867 10.4481 0.375004C9.95764 0.194504 9.4161 0.21235 8.93855 0.424749C8.461 0.637149 8.08508 1.02737 7.89064 1.5125L7.88626 1.52375L6.57376 4.84188C6.5618 4.87258 6.5438 4.90057 6.52083 4.92419C6.49785 4.94781 6.47037 4.96657 6.44001 4.97938C6.41056 4.99239 6.37883 4.99942 6.34664 5.00006C6.31445 5.0007 6.28246 4.99495 6.25251 4.98313L4.66251 4.33938C4.43339 4.24655 4.1818 4.22415 3.93988 4.27502C3.69796 4.3259 3.47671 4.44775 3.30439 4.625C1.94126 6.02688 1.25001 7.6675 1.25001 9.5C1.24655 11.3713 1.97015 13.1708 3.26814 14.5188C3.33846 14.5922 3.42298 14.6506 3.51657 14.6903C3.61015 14.7301 3.71084 14.7504 3.81251 14.75H14.5C14.6696 14.7498 14.8341 14.6922 14.9667 14.5865C15.0993 14.4808 15.1922 14.3333 15.2302 14.1681C15.2682 14.0028 15.2491 13.8295 15.176 13.6765C15.1028 13.5235 14.98 13.3998 14.8275 13.3256ZM4.26189 5.79563L5.69126 6.375C5.90515 6.46062 6.13383 6.50316 6.36419 6.50018C6.59455 6.49721 6.82206 6.44877 7.03366 6.35767C7.24526 6.26656 7.43679 6.13456 7.59726 5.96926C7.75773 5.80395 7.88398 5.60859 7.96876 5.39438L9.27814 2.08188C9.3273 1.95903 9.42145 1.85955 9.54141 1.80369C9.66136 1.74784 9.7981 1.73981 9.92376 1.78125C9.98687 1.80463 10.0446 1.8405 10.0935 1.88672C10.1424 1.93294 10.1815 1.98856 10.2084 2.05025C10.2353 2.11193 10.2495 2.17841 10.2501 2.24571C10.2507 2.313 10.2377 2.37973 10.2119 2.44188C10.2118 2.44417 10.2118 2.44646 10.2119 2.44875L8.87501 5.76813C8.70507 6.19929 8.71277 6.68019 8.89641 7.10569C9.08006 7.53119 9.42471 7.86666 9.85501 8.03875L11.25 8.59063V9.5C11.25 9.5625 11.25 9.62938 11.2531 9.69375L3.60064 6.63125C3.79733 6.33473 4.01852 6.05521 4.26189 5.79563ZM7.29626 13.25C6.62309 12.5781 6.14578 11.7354 5.91564 10.8125C5.86591 10.6198 5.74167 10.4548 5.57025 10.3537C5.39883 10.2526 5.19427 10.2237 5.00157 10.2734C4.80888 10.3232 4.64383 10.4474 4.54274 10.6188C4.44164 10.7902 4.41278 10.9948 4.46251 11.1875C4.64923 11.92 4.95519 12.6168 5.36814 13.25H4.14064C3.241 12.208 2.74726 10.8766 2.75001 9.5C2.74749 8.99003 2.81928 8.4824 2.96314 7.99313L11.505 11.4094C11.6885 12.0755 11.9978 12.7003 12.4163 13.25H7.29626Z" fill="black"/>
</svg>
