<svg width="18" height="18" viewBox="0 0 18 18" fill="none" xmlns="http://www.w3.org/2000/svg">
<path opacity="0.2" d="M15.75 9C15.75 10.335 15.3541 11.6401 14.6124 12.7501C13.8707 13.8601 12.8165 14.7253 11.5831 15.2362C10.3497 15.7471 8.99252 15.8808 7.68314 15.6203C6.37377 15.3598 5.17104 14.717 4.22703 13.773C3.28303 12.829 2.64015 11.6262 2.3797 10.3169C2.11925 9.00749 2.25292 7.65029 2.76382 6.41689C3.27471 5.18349 4.13987 4.12928 5.2499 3.38758C6.35994 2.64588 7.66498 2.25 9 2.25C10.7902 2.25 12.5071 2.96116 13.773 4.22703C15.0388 5.4929 15.75 7.20979 15.75 9Z" fill="#7EB5BD"/>
<path d="M9 1.6875C7.55373 1.6875 6.13993 2.11637 4.9374 2.91988C3.73486 3.72339 2.7976 4.86544 2.24413 6.20163C1.69067 7.53781 1.54586 9.00811 1.82801 10.4266C2.11017 11.8451 2.80661 13.148 3.82928 14.1707C4.85196 15.1934 6.15492 15.8898 7.57341 16.172C8.99189 16.4541 10.4622 16.3093 11.7984 15.7559C13.1346 15.2024 14.2766 14.2651 15.0801 13.0626C15.8836 11.8601 16.3125 10.4463 16.3125 9C16.3105 7.06123 15.5394 5.20246 14.1685 3.83154C12.7975 2.46063 10.9388 1.68955 9 1.6875ZM9 15.1875C7.77623 15.1875 6.57994 14.8246 5.56241 14.1447C4.54488 13.4648 3.75182 12.4985 3.2835 11.3679C2.81518 10.2372 2.69265 8.99314 2.93139 7.79288C3.17014 6.59262 3.75944 5.49011 4.62478 4.62478C5.49012 3.75944 6.59262 3.17014 7.79288 2.93139C8.99314 2.69264 10.2372 2.81518 11.3679 3.2835C12.4985 3.75181 13.4648 4.54488 14.1447 5.56241C14.8246 6.57994 15.1875 7.77623 15.1875 9C15.1856 10.6405 14.5331 12.2132 13.3732 13.3732C12.2132 14.5331 10.6405 15.1856 9 15.1875ZM13.5 9C13.5 9.14918 13.4407 9.29226 13.3353 9.39775C13.2298 9.50324 13.0867 9.5625 12.9375 9.5625H9C8.85082 9.5625 8.70775 9.50324 8.60226 9.39775C8.49677 9.29226 8.4375 9.14918 8.4375 9V5.0625C8.4375 4.91332 8.49677 4.77024 8.60226 4.66475C8.70775 4.55926 8.85082 4.5 9 4.5C9.14919 4.5 9.29226 4.55926 9.39775 4.66475C9.50324 4.77024 9.5625 4.91332 9.5625 5.0625V8.4375H12.9375C13.0867 8.4375 13.2298 8.49676 13.3353 8.60225C13.4407 8.70774 13.5 8.85082 13.5 9Z" fill="#7EB5BD"/>
</svg>
