<svg width="18" height="18" viewBox="0 0 18 18" fill="none" xmlns="http://www.w3.org/2000/svg">
<path fill-rule="evenodd" clip-rule="evenodd" d="M15.398 8.6024C15.5033 8.70787 15.5625 8.85084 15.5625 8.9999C15.5625 9.14896 15.5033 9.29193 15.398 9.3974L10.898 13.8974C10.8465 13.9527 10.7844 13.997 10.7154 14.0277C10.6464 14.0585 10.5719 14.075 10.4964 14.0763C10.4209 14.0777 10.3458 14.0638 10.2758 14.0355C10.2058 14.0072 10.1421 13.9651 10.0887 13.9117C10.0353 13.8583 9.99319 13.7946 9.9649 13.7246C9.93661 13.6546 9.92272 13.5795 9.92405 13.504C9.92538 13.4285 9.94191 13.354 9.97266 13.285C10.0034 13.216 10.0477 13.1539 10.103 13.1024L13.643 9.5624L3.00049 9.5624C2.85131 9.5624 2.70824 9.50314 2.60275 9.39765C2.49726 9.29216 2.43799 9.14909 2.43799 8.9999C2.43799 8.85072 2.49726 8.70764 2.60275 8.60215C2.70824 8.49666 2.85131 8.4374 3.00049 8.4374L13.643 8.4374L10.103 4.8974C10.0477 4.8459 10.0034 4.7838 9.97266 4.7148C9.94192 4.64581 9.92538 4.57132 9.92405 4.49579C9.92272 4.42027 9.93661 4.34524 9.9649 4.2752C9.99319 4.20516 10.0353 4.14154 10.0887 4.08812C10.1421 4.03471 10.2058 3.9926 10.2758 3.96431C10.3458 3.93602 10.4209 3.92213 10.4964 3.92346C10.5719 3.92479 10.6464 3.94132 10.7154 3.97207C10.7844 4.00281 10.8465 4.04714 10.898 4.1024L15.398 8.6024Z" fill="black"/>
</svg>
