<svg width="12.000000" height="14.000000" viewBox="0 0 12 14" fill="none" xmlns="http://www.w3.org/2000/svg" xmlns:xlink="http://www.w3.org/1999/xlink">
	<desc>
			Created with Pixso.
	</desc>
	<defs/>
	<path id="Vector" d="M-0.96 7C-0.96 7.08 -0.94 7.17 -0.89 7.24C-0.85 7.31 -0.79 7.38 -0.72 7.42L10.56 13.93C10.66 13.99 10.78 14.01 10.89 13.99C11 13.97 11.11 13.91 11.18 13.82C11.25 13.73 11.3 13.62 11.3 13.5L11.3 0.49C11.3 0.37 11.25 0.26 11.18 0.17C11.11 0.08 11 0.02 10.89 0C10.78 -0.02 10.66 0 10.56 0.06L-0.72 6.57C-0.79 6.61 -0.85 6.68 -0.89 6.75C-0.94 6.82 -0.96 6.91 -0.96 7L-0.96 7Z" fill="#A3CCD2" fill-opacity="1.000000" fill-rule="nonzero"/>
</svg>
