<svg width="14" height="14" viewBox="0 0 14 14" fill="none" xmlns="http://www.w3.org/2000/svg">
<path fill-rule="evenodd" clip-rule="evenodd" d="M13.4061 12.657C13.406 12.8557 13.327 13.0463 13.1865 13.1868C13.0459 13.3274 12.8553 13.4064 12.6566 13.4065L4.17131 13.4065C4.07065 13.4101 3.97032 13.3933 3.87628 13.3572C3.78224 13.3212 3.69643 13.2665 3.62396 13.1966C3.5515 13.1266 3.49387 13.0428 3.4545 12.9501C3.41514 12.8574 3.39485 12.7577 3.39485 12.657C3.39485 12.5563 3.41514 12.4566 3.4545 12.3639C3.49387 12.2711 3.5515 12.1873 3.62396 12.1174C3.69643 12.0474 3.78224 11.9928 3.87628 11.9567C3.97032 11.9206 4.07066 11.9039 4.17131 11.9074L10.8464 11.9074L0.812555 1.87359C0.671903 1.73294 0.592884 1.54217 0.592885 1.34326C0.592885 1.14435 0.671902 0.953583 0.812555 0.812931C0.953207 0.672279 1.14397 0.593262 1.34288 0.593261C1.5418 0.593261 1.73256 0.67228 1.87321 0.812931L11.9071 10.8468L11.9071 4.17169C11.9035 4.07103 11.9203 3.97069 11.9563 3.87665C11.9924 3.78261 12.047 3.6968 12.117 3.62434C12.1869 3.55188 12.2708 3.49424 12.3635 3.45488C12.4562 3.41552 12.5559 3.39523 12.6566 3.39523C12.7573 3.39523 12.857 3.41552 12.9497 3.45488C13.0424 3.49424 13.1262 3.55188 13.1962 3.62434C13.2661 3.6968 13.3208 3.78261 13.3569 3.87665C13.3929 3.97069 13.4097 4.07103 13.4061 4.17169L13.4061 12.657Z" fill="black"/>
</svg>
