<svg width="18" height="18" viewBox="0 0 18 18" fill="none" xmlns="http://www.w3.org/2000/svg">
<path opacity="0.16" d="M4.5 7.5V14.25H13.5V7.5C13.5 6.30653 13.0259 5.16193 12.182 4.31802C11.3381 3.47411 10.1935 3 9 3C7.80653 3 6.66193 3.47411 5.81802 4.31802C4.97411 5.16193 4.5 6.30653 4.5 7.5Z" fill="#7EB5BD"/>
<path d="M4.5 14.25V7.5C4.5 6.30653 4.97411 5.16193 5.81802 4.31802C6.66193 3.47411 7.80653 3 9 3C10.1935 3 11.3381 3.47411 12.182 4.31802C13.0259 5.16193 13.5 6.30653 13.5 7.5V14.25M4.5 14.25H13.5M4.5 14.25H3M13.5 14.25H15M8.25 16.5H9.75" stroke="#7EB5BD" stroke-width="1.5" stroke-linecap="round" stroke-linejoin="round"/>
<path d="M9 3C9.41421 3 9.75 2.66421 9.75 2.25C9.75 1.83579 9.41421 1.5 9 1.5C8.58579 1.5 8.25 1.83579 8.25 2.25C8.25 2.66421 8.58579 3 9 3Z" stroke="#7EB5BD" stroke-width="1.5"/>
</svg>
