<svg width="14" height="12" viewBox="0 0 14 12" fill="none" xmlns="http://www.w3.org/2000/svg">
<path d="M13.75 6C13.75 6.14918 13.6907 6.29226 13.5852 6.39775C13.4798 6.50324 13.3367 6.5625 13.1875 6.5625H0.8125C0.663316 6.5625 0.520242 6.50324 0.414753 6.39775C0.309263 6.29226 0.25 6.14918 0.25 6C0.25 5.85082 0.309263 5.70774 0.414753 5.60225C0.520242 5.49676 0.663316 5.4375 0.8125 5.4375H13.1875C13.3367 5.4375 13.4798 5.49676 13.5852 5.60225C13.6907 5.70774 13.75 5.85082 13.75 6ZM0.8125 2.0625H13.1875C13.3367 2.0625 13.4798 2.00324 13.5852 1.89775C13.6907 1.79226 13.75 1.64918 13.75 1.5C13.75 1.35082 13.6907 1.20774 13.5852 1.10225C13.4798 0.996763 13.3367 0.9375 13.1875 0.9375H0.8125C0.663316 0.9375 0.520242 0.996763 0.414753 1.10225C0.309263 1.20774 0.25 1.35082 0.25 1.5C0.25 1.64918 0.309263 1.79226 0.414753 1.89775C0.520242 2.00324 0.663316 2.0625 0.8125 2.0625ZM13.1875 9.9375H0.8125C0.663316 9.9375 0.520242 9.99676 0.414753 10.1023C0.309263 10.2077 0.25 10.3508 0.25 10.5C0.25 10.6492 0.309263 10.7923 0.414753 10.8977C0.520242 11.0032 0.663316 11.0625 0.8125 11.0625H13.1875C13.3367 11.0625 13.4798 11.0032 13.5852 10.8977C13.6907 10.7923 13.75 10.6492 13.75 10.5C13.75 10.3508 13.6907 10.2077 13.5852 10.1023C13.4798 9.99676 13.3367 9.9375 13.1875 9.9375Z" fill="#7EB5BD"/>
</svg>
