<svg width="26" height="26" viewBox="0 0 26 26" fill="none" xmlns="http://www.w3.org/2000/svg">
<g opacity="0.3">
<rect width="26" height="26" rx="13" fill="black"/>
<g clip-path="url(#clip0_491_937)">
<path fill-rule="evenodd" clip-rule="evenodd" d="M13.0004 14.2378L16.0938 17.3313C16.258 17.4954 16.4806 17.5876 16.7128 17.5876C16.9449 17.5876 17.1675 17.4954 17.3317 17.3313C17.4958 17.1671 17.588 16.9445 17.588 16.7123C17.588 16.4802 17.4958 16.2576 17.3317 16.0934L14.2371 13L17.3311 9.90659C17.4123 9.82531 17.4768 9.72883 17.5207 9.62265C17.5647 9.51647 17.5873 9.40267 17.5872 9.28776C17.5872 9.17284 17.5646 9.05905 17.5206 8.95289C17.4766 8.84674 17.4121 8.75028 17.3308 8.66904C17.2495 8.58781 17.153 8.52337 17.0469 8.47942C16.9407 8.43547 16.8269 8.41286 16.712 8.41289C16.597 8.41291 16.4833 8.43558 16.3771 8.47958C16.2709 8.52358 16.1745 8.58806 16.0933 8.66934L13.0004 11.7628L9.907 8.66934C9.82633 8.58573 9.72981 8.51902 9.62307 8.47312C9.51634 8.42721 9.40154 8.40302 9.28536 8.40195C9.16918 8.40089 9.05395 8.42297 8.94639 8.46692C8.83884 8.51086 8.74111 8.57579 8.65892 8.65791C8.57672 8.74002 8.51171 8.83769 8.46766 8.9452C8.42361 9.05271 8.40142 9.16792 8.40237 9.2841C8.40333 9.40029 8.42741 9.51511 8.47322 9.62189C8.51902 9.72866 8.58564 9.82525 8.66917 9.906L11.7638 13L8.66975 16.094C8.58622 16.1748 8.51961 16.2713 8.4738 16.3781C8.42799 16.4849 8.40391 16.5997 8.40296 16.7159C8.402 16.8321 8.4242 16.9473 8.46824 17.0548C8.51229 17.1623 8.57731 17.26 8.6595 17.3421C8.74169 17.4242 8.83942 17.4891 8.94697 17.5331C9.05453 17.577 9.16976 17.5991 9.28594 17.5981C9.40212 17.597 9.51693 17.5728 9.62366 17.5269C9.73039 17.481 9.82691 17.4143 9.90759 17.3307L13.0004 14.2378Z" fill="white"/>
</g>
</g>
<defs>
<clipPath id="clip0_491_937">
<rect width="14" height="14" fill="white" transform="translate(6 6)"/>
</clipPath>
</defs>
</svg>
