<svg width="18" height="18" viewBox="0 0 18 18" fill="none" xmlns="http://www.w3.org/2000/svg">
<path opacity="0.2" d="M15.1875 3.375V6.1875H2.8125V3.375C2.8125 3.22582 2.87176 3.08274 2.97725 2.97725C3.08274 2.87176 3.22582 2.8125 3.375 2.8125H14.625C14.7742 2.8125 14.9173 2.87176 15.0227 2.97725C15.1282 3.08274 15.1875 3.22582 15.1875 3.375Z" fill="#7EB5BD"/>
<path d="M14.625 2.25H12.9375V1.6875C12.9375 1.53832 12.8782 1.39524 12.7727 1.28975C12.6673 1.18426 12.5242 1.125 12.375 1.125C12.2258 1.125 12.0827 1.18426 11.9773 1.28975C11.8718 1.39524 11.8125 1.53832 11.8125 1.6875V2.25H6.1875V1.6875C6.1875 1.53832 6.12824 1.39524 6.02275 1.28975C5.91726 1.18426 5.77418 1.125 5.625 1.125C5.47582 1.125 5.33274 1.18426 5.22725 1.28975C5.12176 1.39524 5.0625 1.53832 5.0625 1.6875V2.25H3.375C3.07663 2.25 2.79048 2.36853 2.5795 2.5795C2.36853 2.79048 2.25 3.07663 2.25 3.375V14.625C2.25 14.9234 2.36853 15.2095 2.5795 15.4205C2.79048 15.6315 3.07663 15.75 3.375 15.75H14.625C14.9234 15.75 15.2095 15.6315 15.4205 15.4205C15.6315 15.2095 15.75 14.9234 15.75 14.625V3.375C15.75 3.07663 15.6315 2.79048 15.4205 2.5795C15.2095 2.36853 14.9234 2.25 14.625 2.25ZM5.0625 3.375V3.9375C5.0625 4.08668 5.12176 4.22976 5.22725 4.33525C5.33274 4.44074 5.47582 4.5 5.625 4.5C5.77418 4.5 5.91726 4.44074 6.02275 4.33525C6.12824 4.22976 6.1875 4.08668 6.1875 3.9375V3.375H11.8125V3.9375C11.8125 4.08668 11.8718 4.22976 11.9773 4.33525C12.0827 4.44074 12.2258 4.5 12.375 4.5C12.5242 4.5 12.6673 4.44074 12.7727 4.33525C12.8782 4.22976 12.9375 4.08668 12.9375 3.9375V3.375H14.625V5.625H3.375V3.375H5.0625ZM14.625 14.625H3.375V6.75H14.625V14.625ZM11.25 10.6875C11.25 10.8367 11.1907 10.9798 11.0852 11.0852C10.9798 11.1907 10.8367 11.25 10.6875 11.25H9.5625V12.375C9.5625 12.5242 9.50324 12.6673 9.39775 12.7727C9.29226 12.8782 9.14918 12.9375 9 12.9375C8.85082 12.9375 8.70774 12.8782 8.60225 12.7727C8.49676 12.6673 8.4375 12.5242 8.4375 12.375V11.25H7.3125C7.16332 11.25 7.02024 11.1907 6.91475 11.0852C6.80926 10.9798 6.75 10.8367 6.75 10.6875C6.75 10.5383 6.80926 10.3952 6.91475 10.2898C7.02024 10.1843 7.16332 10.125 7.3125 10.125H8.4375V9C8.4375 8.85082 8.49676 8.70774 8.60225 8.60225C8.70774 8.49676 8.85082 8.4375 9 8.4375C9.14918 8.4375 9.29226 8.49676 9.39775 8.60225C9.50324 8.70774 9.5625 8.85082 9.5625 9V10.125H10.6875C10.8367 10.125 10.9798 10.1843 11.0852 10.2898C11.1907 10.3952 11.25 10.5383 11.25 10.6875Z" fill="#7EB5BD"/>
</svg>
