<svg width="18" height="18" viewBox="0 0 18 18" fill="none" xmlns="http://www.w3.org/2000/svg">
<path fill-rule="evenodd" clip-rule="evenodd" d="M2.60201 8.6024C2.49667 8.70787 2.4375 8.85084 2.4375 8.9999C2.4375 9.14896 2.49667 9.29193 2.60201 9.3974L7.10201 13.8974C7.1535 13.9527 7.2156 13.997 7.2846 14.0277C7.3536 14.0585 7.42809 14.075 7.50361 14.0763C7.57914 14.0777 7.65416 14.0638 7.7242 14.0355C7.79424 14.0072 7.85787 13.9651 7.91128 13.9117C7.9647 13.8583 8.00681 13.7946 8.0351 13.7246C8.06339 13.6546 8.07728 13.5795 8.07595 13.504C8.07462 13.4285 8.05809 13.354 8.02734 13.285C7.9966 13.216 7.95227 13.1539 7.89701 13.1024L4.35701 9.5624L14.9995 9.5624C15.1487 9.5624 15.2918 9.50314 15.3973 9.39765C15.5027 9.29216 15.562 9.14909 15.562 8.9999C15.562 8.85072 15.5027 8.70764 15.3973 8.60215C15.2918 8.49666 15.1487 8.4374 14.9995 8.4374L4.35701 8.4374L7.89701 4.8974C7.95227 4.8459 7.9966 4.7838 8.02734 4.7148C8.05808 4.64581 8.07462 4.57132 8.07595 4.49579C8.07728 4.42027 8.06339 4.34524 8.0351 4.2752C8.00681 4.20516 7.9647 4.14154 7.91128 4.08812C7.85787 4.03471 7.79424 3.9926 7.7242 3.96431C7.65416 3.93602 7.57914 3.92213 7.50361 3.92346C7.42809 3.92479 7.3536 3.94132 7.2846 3.97207C7.2156 4.00281 7.1535 4.04714 7.10201 4.1024L2.60201 8.6024Z" fill="black"/>
</svg>
