<svg width="23" height="23" viewBox="0 0 23 23" fill="none" xmlns="http://www.w3.org/2000/svg">
<path d="M16.291 3.20081C17.7364 4.03538 18.9388 5.23298 19.7792 6.67506C20.6195 8.11713 21.0687 9.75368 21.0821 11.4227C21.0956 13.0917 20.673 14.7353 19.856 16.1907C19.0391 17.6462 17.8562 18.8631 16.4245 19.7209C14.9927 20.5787 13.3617 21.0477 11.693 21.0815C10.0243 21.1152 8.37571 20.7126 6.91042 19.9134C5.44514 19.1142 4.21398 17.9462 3.33882 16.525C2.46367 15.1038 1.97487 13.4787 1.92081 11.8105L1.91602 11.5L1.92081 11.1895C1.97448 9.53443 2.45608 7.92152 3.31867 6.50801C4.18126 5.0945 5.39539 3.92862 6.8427 3.12403C8.29002 2.31944 9.92111 1.90361 11.577 1.91706C13.2328 1.93052 14.857 2.37281 16.291 3.20081ZM11.4993 5.74998C11.2646 5.75001 11.0381 5.83619 10.8627 5.99216C10.6873 6.14814 10.5752 6.36307 10.5477 6.59619L10.541 6.70831V11.5L10.5496 11.6255C10.5715 11.7918 10.6366 11.9494 10.7384 12.0826L10.8218 12.1785L13.6968 15.0535L13.7869 15.1321C13.955 15.2625 14.1616 15.3332 14.3743 15.3332C14.5871 15.3332 14.7937 15.2625 14.9618 15.1321L15.0519 15.0525L15.1314 14.9624C15.2618 14.7944 15.3326 14.5877 15.3326 14.375C15.3326 14.1623 15.2618 13.9556 15.1314 13.7875L15.0519 13.6974L12.4577 11.1023V6.70831L12.451 6.59619C12.4235 6.36307 12.3114 6.14814 12.136 5.99216C11.9606 5.83619 11.7341 5.75001 11.4993 5.74998Z" fill="#171D24"/>
</svg>
