<svg width="52" height="52" viewBox="0 0 52 52" fill="none" xmlns="http://www.w3.org/2000/svg">
<rect width="52" height="52" rx="26" fill="black"/>
<path d="M20.6689 17.1463C20.6689 15.8071 21.0853 13 23.6565 13C26.1005 13 28.1286 15.7702 30.3191 15.7702C31.9482 15.7702 32.075 13.6525 32.075 13.0908H33.5419C33.5419 13.9598 33.3606 17.1463 30.7534 17.1463C28.0923 17.1463 26.0646 14.3764 24.0905 14.3764C22.2804 14.3764 22.1536 16.6032 22.1536 17.1463H20.6689Z" fill="white"/>
<path d="M27.8069 34.0042C32.1039 34.0042 34.3961 31.5825 34.3961 28.6926C34.3961 25.4896 31.7138 22.8326 27.3649 22.8326C22.9892 22.8326 19.6039 26.1406 19.6039 28.3013C19.6039 30.5151 23.4577 34.0042 27.8069 34.0042ZM17 21.5827H19.6039V25.619C20.9579 23.5102 24.3962 21.3483 28.0941 21.3483C33.4579 21.3483 37 24.8639 37 28.6661C37 32.5983 33.6666 35.5151 28.4845 35.5151C24.9951 35.5151 21.0098 33.1453 19.6039 30.9837V39.6699H17V21.5827Z" fill="white"/>
</svg>
